<?xml version="1.0" encoding="UTF-8" standalone="no"?>
<svg width="321px" height="321px" viewBox="0 0 321 321" version="1.1" xmlns="http://www.w3.org/2000/svg" xmlns:xlink="http://www.w3.org/1999/xlink" xmlns:sketch="http://www.bohemiancoding.com/sketch/ns">
    <!-- Generator: Sketch 3.3.2 (12043) - http://www.bohemiancoding.com/sketch -->
    <title>bk-logo</title>
    <desc>Created with Sketch.</desc>
    <defs></defs>
    <g id="Page-1" stroke="none" stroke-width="1" fill="none" fill-rule="evenodd" sketch:type="MSPage">
        <g id="bk-logo" sketch:type="MSLayerGroup">
            <circle id="Oval-1" fill="#FFFFFF" sketch:type="MSShapeGroup" cx="160.5" cy="160.5" r="160.5"></circle>
            <path d="M232.172,55.324 C232.857,53.637 231.462,51.981 231.462,51.981 C231.462,51.981 220.504,33.339 181.733,29.203 C160.974,26.991 132.713,31.191 112.904,41.873 C77.013,61.212 71.639,93.07 71.639,93.07 C71.437,93.85 71.093,96.225 71.9,97.238 C72.722,98.269 73.918,98.25 75.402,97.749 C88.069,93.47 125.823,80.95 149.648,74.627 C183.554,65.638 211.407,60.168 229.285,57.122 C230.554,56.907 231.693,56.491 232.172,55.324" id="path11" fill="#FFBB36" sketch:type="MSShapeGroup"></path>
            <path d="M270.888,205.469 C250.594,251.045 211.66,282.763 160.634,283.486 C123.477,284.013 90.686,271.283 67.004,249.079 L52.681,255.207 L52.705,233.031 C37.1,211.982 28.052,185.357 28.052,155.111 C28.052,77.643 87.387,16.577 170.139,16.577 C183.646,16.577 195.854,18.679 205.058,20.764 C190.877,16.226 176.786,13.767 161.101,13.767 C72.289,13.767 12.521,85.781 12.518,160.047 C12.518,240.978 76.007,308.767 159.341,308.767 C238.936,308.767 281.879,252.65 295.612,218.901 L270.888,205.469" id="path13" fill="#0066B3" sketch:type="MSShapeGroup"></path>
            <path d="M250.287,189.457 C261.966,188.132 270.046,183.438 274.481,179.084 C278.523,175.113 279.466,169.645 279.472,165.583 C279.635,159.615 279.472,140.782 279.472,140.782 L248.565,147.469 C248.565,147.469 248.562,149.799 248.553,154.689 C248.61,159.465 250.912,162.065 255.918,161.144 C257.487,160.887 259.902,160.117 259.902,160.117 L259.944,166.019 C259.917,165.85 260.401,169.31 252.612,170.85 C242.419,172.45 237.787,166.178 237.666,155.095 C237.867,143.217 244.583,136.367 252.73,134.491 C261.896,132.389 267.084,134.573 270.133,135.038 C280.37,136.571 283.273,121.223 273.961,117.623 C267.077,114.85 258.146,114.349 249.632,116.049 C238.264,118.316 215.908,127.831 215.846,158.748 C215.907,183.315 234.019,191.321 250.287,189.457" id="path15" fill="#EC1D23" sketch:type="MSShapeGroup"></path>
            <path d="M149.819,215.788 C149.819,215.788 159.302,212.535 160.122,212.247 C167.744,209.617 170.521,205.085 170.487,197.241 C170.391,188.724 170.377,172.116 170.377,172.116 L192.427,197.523 C196.009,201.222 200.498,201.538 204.608,200.332 C208.857,199.088 212.395,195.203 212.502,189.724 C212.537,171.377 212.493,126.599 212.493,126.599 C212.493,126.599 206.795,127.808 202.065,129.149 C196.623,130.691 192.436,134.161 192.436,143.321 C192.436,146.564 192.424,165.174 192.424,165.174 C192.424,165.174 180.014,149.61 171.899,141.492 C167.56,137.158 160.381,139.745 160.381,139.745 L149.801,142.947 L149.819,215.788" id="path17" fill="#EC1D23" sketch:type="MSShapeGroup"></path>
            <path d="M143.143,144.588 C143.143,144.588 136.502,146.536 131.098,148.487 C124.081,151.024 120.036,155.084 120.036,165.706 C120.036,175.462 120.019,226.239 120.019,226.239 C120.019,226.239 126.166,224.137 131.897,221.975 C140.045,218.903 143.119,214.712 143.119,206.156 C143.119,198.803 143.143,144.588 143.143,144.588" id="path19" fill="#EC1D23" sketch:type="MSShapeGroup"></path>
            <path d="M110.188,158.992 C104.093,156.223 98.861,159.311 96.639,162.724 L77.904,194.589 L77.871,168.9 L55.785,178.049 L55.716,250.695 L71.274,244.173 C71.274,244.173 74.328,243.307 76.171,240.411 C77.865,237.743 77.802,233.268 77.802,233.268 L77.821,210.232 L95.209,228.683 C99.027,232.648 106.042,234.684 112.232,229.684 C117.829,225.164 116.962,217.458 113.84,214.007 L98,198.062 C98,198.062 111.94,176.092 114.219,172.421 C117.244,167.545 115.722,161.506 110.188,158.992" id="path21" fill="#EC1D23" sketch:type="MSShapeGroup"></path>
            <path d="M101.538,244.383 C100.716,246.277 102.591,248.156 102.591,248.156 C110.63,258.243 146.323,271.033 185.065,261.669 C244.23,247.36 256.731,205.503 258.147,199.593 C258.438,198.388 258.668,196.45 257.55,195.287 C256.612,194.316 255.279,194.306 253.429,194.734 C212.336,204.394 143.955,225.267 104.531,242.159 C102.834,242.886 102.066,243.153 101.538,244.383" id="path23" fill="#FFBB36" sketch:type="MSShapeGroup"></path>
            <path d="M66.449,149.177 C66.395,145.173 63.282,142.988 57.903,145.688 L57.892,158.56 C57.892,158.56 59.631,157.79 60.907,157.196 C64.052,155.737 66.523,153.113 66.449,149.177 L66.449,149.177 Z M57.797,137.542 C58.755,137.168 59.459,136.853 60.263,136.461 C63.177,135.042 65.251,132.41 65.275,129.002 C65.305,125.121 62.109,124.118 57.803,126.344 L57.797,137.542 L57.797,137.542 Z M80.568,147.338 C80.743,157.497 73.425,162.902 63.892,166.852 L44.364,175.148 L44.319,122.243 C44.319,122.243 56.622,117.227 60.636,115.767 C72.046,111.615 78.755,116.62 78.755,124.242 C78.755,129.328 76.578,133.651 71.853,137.45 C76.506,138.226 80.479,142.048 80.568,147.338 L80.568,147.338 Z" id="path25" fill="#EC1D23" sketch:type="MSShapeGroup"></path>
            <path d="M117.638,102.684 C117.638,98.228 114.573,97.043 110.866,98.11 C107.869,98.968 104.378,100.331 104.378,100.331 L104.354,133.222 C104.318,136.498 103.811,140.599 99.775,141.615 C96.677,142.396 95.212,140.329 95.209,137.059 L95.165,110.138 C95.165,105.659 92.049,104.318 88.354,105.544 C84.2,106.931 81.704,107.93 81.704,107.93 C81.704,107.93 81.752,131.221 81.695,140.535 C81.642,151.453 89.17,156.904 100.644,153.515 C110.766,150.522 117.525,144.858 117.653,130.317 L117.638,102.684" id="path27" fill="#EC1D23" sketch:type="MSShapeGroup"></path>
            <path d="M226.166,116.277 C229.082,115.648 230.901,113.586 230.901,110.023 C230.901,106.813 230.913,104.372 230.913,104.372 L215.073,107.833 L215.102,98.514 C215.102,98.514 222.866,96.868 225.022,96.398 C227.731,95.804 229.15,94.327 229.15,91.231 C229.15,88.343 229.132,85.844 229.132,85.844 L215.097,88.822 L215.094,81.433 C215.094,81.433 222.39,79.91 226.322,79.084 C229.385,78.44 230.396,76.342 230.396,73.455 C230.396,71.575 230.426,67.854 230.426,67.854 C223.425,69.09 210.117,71.749 201.818,73.65 L201.705,121.878 C201.705,121.878 217.486,118.161 226.166,116.277" id="path29" fill="#EC1D23" sketch:type="MSShapeGroup"></path>
            <path d="M134.633,114.329 C134.644,114.32 142.469,110.278 142.383,103.866 C142.306,98.383 137.256,99.583 134.636,100.544 L134.633,114.329 L134.633,114.329 Z M134.653,121.769 C134.653,121.769 134.627,131.005 134.614,134.732 C134.582,138.226 132.196,140.749 129.176,141.903 C129.176,142.015 129.176,141.798 129.176,141.903 C126.651,142.769 121.285,144.616 121.285,144.616 L121.306,94.953 C121.306,94.953 132.386,91.093 138.902,89.579 C149.027,87.224 156.228,91.831 156.098,100.01 C156.035,107.797 151.691,112.522 147.789,115.757 L156.364,123.99 C158.999,126.543 159.183,131.158 156.219,133.947 C154.462,135.598 149.762,137.309 146.082,133.564 L134.653,121.769 L134.653,121.769 Z" id="path31" fill="#EC1D23" sketch:type="MSShapeGroup"></path>
            <path d="M246.763,87.618 C246.779,87.618 254.493,84.68 254.405,78.495 C254.325,73.264 249.174,74.211 246.743,74.754 L246.763,87.618 L246.763,87.618 Z M233.818,114.831 L233.839,67.211 C233.839,67.211 247.743,64.753 251.334,64.291 C261.302,63.011 267.99,68.543 267.853,76.402 C267.8,83.313 263.458,87.472 259.768,89.967 C259.768,89.967 266.548,97.606 268.365,99.627 C270.806,102.351 270.697,107.008 267.086,109.289 C263.537,111.527 260.021,110.356 257.98,108.102 L246.787,94.975 C246.787,94.975 246.823,103.049 246.814,106.574 C246.781,110.083 244.751,112.641 241.111,113.394 L233.818,114.831 L233.818,114.831 Z" id="path33" fill="#EC1D23" sketch:type="MSShapeGroup"></path>
            <path d="M198.587,94.844 L178.863,99.323 C178.863,99.323 178.839,101.407 178.836,104.809 C178.863,107.36 180.652,109.016 183.226,108.486 C184.849,108.149 186.148,107.848 186.148,107.848 L186.178,113.326 C186.199,115.493 182.947,116.912 179.57,116.834 C174.838,116.711 172.214,113.034 172.146,106.037 C172.293,96.837 176.621,91.436 182.516,89.928 C185.46,89.17 188.139,89.539 190.22,89.809 C195.302,90.63 198.228,88.18 198.332,83.98 C198.438,79.482 194.448,76.7 185.884,76.997 C167.314,77.638 157.819,90.98 157.819,106.903 C157.819,123.21 168.472,130.413 181.475,128.063 C188.823,126.581 192.478,124.195 195.011,121.974 C197.543,119.753 198.587,116.431 198.587,113.594 L198.587,94.844" id="path35" fill="#EC1D23" sketch:type="MSShapeGroup"></path>
            <path d="M120.878,41.508 C99.126,51.11 84.44,73.966 83.633,83.641 C83.315,87.487 88.414,88.039 88.894,83.955 C93.484,66.307 107.532,49.668 120.878,41.508" id="path37" fill="#FFFFFF" sketch:type="MSShapeGroup"></path>
            <path d="M192.958,57.907 C204.69,55.029 211.133,54.595 211.249,49.354 C211.453,40.578 186.415,30.402 163.489,32.245 C186.848,33.806 200.86,42.799 200.937,49.066 C200.981,53.03 197.546,56.528 192.958,57.907" id="path39" fill="#FFFFFF" sketch:type="MSShapeGroup"></path>
            <path d="M200.228,251.883 C217.832,244.959 234.749,231.733 244.108,211.922 C246.809,206.197 238.999,203.272 236.794,209.995 C231.316,224.08 220.058,240.618 200.228,251.883" id="path41" fill="#FFFFFF" sketch:type="MSShapeGroup"></path>
            <path d="M288.883,192.364 L291.286,192.364 C292.592,192.364 294.241,192.602 294.241,194.147 C294.241,195.898 293.037,196.135 291.428,196.135 L288.882,196.135 L288.882,192.364 L288.883,192.364 Z M286.034,204.512 L288.883,204.512 L288.883,198.37 L290.669,198.37 L294.17,204.512 L297.158,204.512 L293.312,198.234 C295.44,198.056 297.086,197.03 297.086,194.389 C297.086,191.263 295.06,190.126 291.46,190.126 L286.033,190.126 L286.033,204.512 L286.034,204.512 L286.034,204.512 Z M277.969,197.337 C277.969,205.161 284.18,210.21 291.147,210.21 C298.118,210.21 304.331,205.161 304.331,197.337 C304.331,189.545 298.118,184.531 291.147,184.531 C284.179,184.532 277.969,189.545 277.969,197.337 L277.969,197.337 Z M281.469,197.337 C281.469,191.5 285.754,187.278 291.146,187.278 C296.472,187.278 300.828,191.5 300.828,197.337 C300.828,203.21 296.473,207.464 291.146,207.464 C285.755,207.464 281.469,203.21 281.469,197.337 L281.469,197.337 Z" id="path43" fill="#EC1D23" sketch:type="MSShapeGroup"></path>
        </g>
    </g>
</svg>