<?xml version="1.0" encoding="utf-8"?>
<!-- Generator: Adobe Illustrator 16.0.4, SVG Export Plug-In . SVG Version: 6.00 Build 0)  -->
<!DOCTYPE svg PUBLIC "-//W3C//DTD SVG 1.1//EN" "http://www.w3.org/Graphics/SVG/1.1/DTD/svg11.dtd">
<svg version="1.1" id="Layer_1" xmlns="http://www.w3.org/2000/svg" xmlns:xlink="http://www.w3.org/1999/xlink" x="0px" y="0px"
	 width="1024px" height="148.272px" viewBox="0 0 1024 148.272" enable-background="new 0 0 1024 148.272" xml:space="preserve">
<text transform="matrix(1 0 0 1 11.1753 141.623)"><tspan x="0" y="0" fill="#FFFFFF" font-family="'GenerationGothic'" font-size="110.4858" letter-spacing="-2">De</tspan><tspan x="124.515" y="0" fill="#FFFFFF" font-family="'GenerationGothic'" font-size="110.4858">lt</tspan><tspan x="187.159" y="0" fill="#FFFFFF" font-family="'GenerationGothic'" font-size="110.4858" letter-spacing="11">a</tspan><tspan x="251.461" y="0" fill="#B1B3B5" font-family="'GenerationGothic'" font-size="110.4858" letter-spacing="-8">W</tspan><tspan x="336.092" y="0" fill="#B1B3B5" font-family="'GenerationGothic'" font-size="110.4858">ork</tspan><tspan x="484.694" y="0" fill="#B1B3B5" font-family="'GenerationGothic'" font-size="110.4858" letter-spacing="-2">s</tspan><tspan x="526.237" y="0" fill="#B1B3B5" font-family="'GenerationGothic'" font-size="110.4858">t</tspan><tspan x="562.807" y="0" fill="#B1B3B5" font-family="'GenerationGothic'" font-size="110.4858" letter-spacing="-2">re</tspan><tspan x="649.869" y="0" fill="#B1B3B5" font-family="'GenerationGothic'" font-size="110.4858">am</tspan></text>
<g>
	<defs>
		<rect id="SVGID_1_" x="795.562" y="-2.89" width="217.077" height="146.303"/>
	</defs>
	<clipPath id="SVGID_2_">
		<use xlink:href="#SVGID_1_"  overflow="visible"/>
	</clipPath>
	<g clip-path="url(#SVGID_2_)">
		<g>
			<linearGradient id="SVGID_3_" gradientUnits="userSpaceOnUse" x1="846.4502" y1="201.5049" x2="954.7798" y2="13.8725">
				<stop  offset="0.5031" style="stop-color:#F58025"/>
				<stop  offset="0.6582" style="stop-color:#F5832A;stop-opacity:0.9596"/>
				<stop  offset="0.7791" style="stop-color:#F58833;stop-opacity:0.9281"/>
				<stop  offset="1" style="stop-color:#FFFFFF;stop-opacity:0.03"/>
			</linearGradient>
			<path fill="url(#SVGID_3_)" d="M834.385,113.464c12.125-14.049,28.013-25.021,46.595-31.103
				c18.425-6.626,39.061-8.69,59.757-11.644c20.652-3.32,41.777-5.11,61.002-23.528l-2.712-7.771
				c-18.566,19.547-39.552,24.113-60.029,28.12c-20.55,3.626-41.052,6.234-59.304,13.275c-18.416,6.495-34.119,17.754-46.094,31.979
				c-12.034,14.215-20.343,31.398-25.697,49.221c-1.634,5.306-2.894,10.186-3.988,14.934h0.825
				c1.151-4.858,2.238-9.725,3.767-14.573C813.957,144.588,822.18,127.488,834.385,113.464z"/>
			<linearGradient id="SVGID_4_" gradientUnits="userSpaceOnUse" x1="845.5029" y1="199.8535" x2="923.4607" y2="64.8267">
				<stop  offset="0" style="stop-color:#008E7F"/>
				<stop  offset="0.5828" style="stop-color:#008D7F"/>
				<stop  offset="1" style="stop-color:#FFFFFF;stop-opacity:0"/>
			</linearGradient>
			<path fill="url(#SVGID_4_)" d="M857.896,104.128c14.6-8.163,32.057-12.114,50.412-12.731c18.399-0.783,37.769,2.59,56.562,4.138
				l-1.09-7.431c-18.969-0.127-37.812-0.666-56.341,0.565c-18.293,1.041-35.889,6-50.371,14.395
				c-25.161,14.021-40.565,39.816-49.12,66.653c-0.136,0.419-0.269,0.843-0.398,1.262c-0.041,0.134-0.08,0.258-0.12,0.383
				c-0.389,1.267-0.758,2.53-1.124,3.788c-0.17,0.599-0.316,1.203-0.479,1.796h0.817
				C814.803,147.783,830.397,118.881,857.896,104.128z"/>
			<linearGradient id="SVGID_5_" gradientUnits="userSpaceOnUse" x1="803.125" y1="180.9141" x2="914.7666" y2="-12.4549">
				<stop  offset="0" style="stop-color:#DC1F26"/>
				<stop  offset="0.638" style="stop-color:#DD1F29"/>
				<stop  offset="1" style="stop-color:#FFFFFF;stop-opacity:0"/>
			</linearGradient>
			<path fill="url(#SVGID_5_)" d="M842.053,77.773c12.956-13.748,28.862-24.714,45.396-35.464
				c16.424-11.045,33.674-21.634,46.928-41.547c-1.228-1.375-3.699-3.398-4.967-4.762c-12.55,20.724-28.202,32.642-44.279,44.235
				c-16.181,11.303-31.806,22.694-44.493,36.744c-26.871,28.433-39.253,63.527-44.386,99.967h1.384
				C802.704,142.296,815.621,104.571,842.053,77.773z"/>
			<linearGradient id="SVGID_6_" gradientUnits="userSpaceOnUse" x1="807.752" y1="181.7344" x2="896.3774" y2="28.2305">
				<stop  offset="0.5828" style="stop-color:#0078AE"/>
				<stop  offset="0.6232" style="stop-color:#067BB0;stop-opacity:0.9032"/>
				<stop  offset="0.675" style="stop-color:#1683B5;stop-opacity:0.7791"/>
				<stop  offset="0.733" style="stop-color:#3091BD;stop-opacity:0.64"/>
				<stop  offset="0.7956" style="stop-color:#55A5C9;stop-opacity:0.4899"/>
				<stop  offset="0.8619" style="stop-color:#84BED8;stop-opacity:0.3311"/>
				<stop  offset="0.9309" style="stop-color:#BEDCEA;stop-opacity:0.1656"/>
				<stop  offset="1" style="stop-color:#FFFFFF;stop-opacity:0"/>
			</linearGradient>
			<path fill="url(#SVGID_6_)" d="M866.512,66.344c14.853-9.833,32.895-16.542,49.443-25.436c-0.816-0.949-3-2.654-3.844-3.594
				c-16.222,9.505-32.656,17.459-47.256,27.679c-14.637,10.059-27.369,22.309-37.167,36.601
				c-15.755,22.533-23.873,49.734-28.23,75.352h0.958c4.505-25.579,12.232-52.64,28.265-74.831
				C838.674,87.996,851.633,76.021,866.512,66.344z"/>
			<linearGradient id="SVGID_7_" gradientUnits="userSpaceOnUse" x1="831.9453" y1="194.4102" x2="932.5142" y2="20.2198">
				<stop  offset="0" style="stop-color:#EE2B74"/>
				<stop  offset="0.4785" style="stop-color:#ED2A74"/>
				<stop  offset="0.5794" style="stop-color:#ED3176;stop-opacity:0.9695"/>
				<stop  offset="0.7117" style="stop-color:#EE427C;stop-opacity:0.9294"/>
				<stop  offset="1" style="stop-color:#FFFFFF;stop-opacity:0"/>
			</linearGradient>
			<path fill="url(#SVGID_7_)" d="M857.617,86.946c15.467-10.326,33.99-16.596,53.287-21.427
				c19.299-5.11,39.375-8.658,58.222-20.049l-3.34-6.041c-18.429,12.271-37.562,17.992-56.653,23.675
				c-19.111,5.396-37.434,12.11-52.7,22.754c-15.482,10.312-27.625,24.643-36.468,40.699c-8.747,15.799-14.713,33.271-18.249,50.399
				h0.815c3.611-17.027,9.254-34.353,18.103-49.95C829.621,111.073,841.952,96.938,857.617,86.946z"/>
			<linearGradient id="SVGID_8_" gradientUnits="userSpaceOnUse" x1="807.5293" y1="137.9062" x2="971.2314" y2="137.9062">
				<stop  offset="0.4663" style="stop-color:#394DA0"/>
				<stop  offset="0.5265" style="stop-color:#3F52A3;stop-opacity:0.8871"/>
				<stop  offset="0.6039" style="stop-color:#4F60AA;stop-opacity:0.7422"/>
				<stop  offset="0.6905" style="stop-color:#6978B7;stop-opacity:0.5799"/>
				<stop  offset="0.7839" style="stop-color:#8E99C9;stop-opacity:0.4049"/>
				<stop  offset="0.8828" style="stop-color:#BDC4DF;stop-opacity:0.2197"/>
				<stop  offset="0.9847" style="stop-color:#F6F7FB;stop-opacity:0.0286"/>
				<stop  offset="1" style="stop-color:#FFFFFF;stop-opacity:0"/>
			</linearGradient>
			<path fill="url(#SVGID_8_)" d="M905.154,98.876c-21.24-0.164-40.967,5.335-56.488,16.395
				c-15.637,10.912-26.993,27.127-34.529,44.684c-2.424,5.566-4.834,11.257-6.607,16.992h0.783
				c1.744-5.473,2.812-8.869,6.145-16.445c7.631-17.504,19.079-33.614,34.84-44.31c15.64-10.846,35.477-16.025,56.752-15.415
				c21.309,0.219,43.268,6.209,65.183,10.153l-1.29-5.041C947.92,102.615,926.427,98.645,905.154,98.876z"/>
		</g>
	</g>
</g>
<text transform="matrix(0.9999 -0.0162 0.0162 0.9999 788.6406 80.2427)" fill="#78787A" font-family="'GenerationGothic'" font-size="18.6553">©</text>
</svg>
