<?xml version="1.0" encoding="utf-8"?>
<!-- Generator: Adobe Illustrator 16.0.4, SVG Export Plug-In . SVG Version: 6.00 Build 0)  -->
<!DOCTYPE svg PUBLIC "-//W3C//DTD SVG 1.1//EN" "http://www.w3.org/Graphics/SVG/1.1/DTD/svg11.dtd">
<svg version="1.1" id="Layer_1" xmlns="http://www.w3.org/2000/svg" xmlns:xlink="http://www.w3.org/1999/xlink" x="0px" y="0px"
	 width="150px" height="150px" viewBox="0 0 150 150" enable-background="new 0 0 150 150" xml:space="preserve">
<path fill="#EC0A71" d="M142.863,95.098c0.491-1.618,2.188-2.534,3.811-2.071c0.091-0.351,0.172-0.707,0.261-1.062
	c-1.648-0.356-2.708-1.963-2.382-3.621c0.33-1.656,1.927-2.733,3.584-2.437c0.054-0.357,0.103-0.721,0.154-1.084
	c-1.671-0.197-2.881-1.689-2.714-3.368c0.165-1.677,1.641-2.901,3.312-2.773c0.021-0.363,0.037-0.729,0.051-1.095
	c-1.673-0.037-3.021-1.402-3.021-3.087c0-1.684,1.348-3.048,3.021-3.085c-0.014-0.366-0.029-0.729-0.051-1.094
	c-1.671,0.128-3.147-1.098-3.312-2.775c-0.166-1.677,1.044-3.17,2.715-3.367c-0.052-0.364-0.101-0.727-0.154-1.084
	c-1.657,0.299-3.254-0.781-3.584-2.436c-0.328-1.659,0.733-3.264,2.382-3.62c-0.089-0.357-0.17-0.711-0.261-1.064
	c-1.622,0.463-3.319-0.452-3.811-2.071c-0.493-1.618,0.409-3.321,2.014-3.835c-0.12-0.347-0.236-0.693-0.362-1.034
	c-1.569,0.623-3.348-0.124-3.998-1.688c-0.646-1.562,0.081-3.343,1.626-4.014c-0.151-0.332-0.306-0.663-0.462-0.993
	c-1.5,0.772-3.345,0.204-4.142-1.288c-0.799-1.489-0.243-3.332,1.22-4.151c-0.184-0.313-0.372-0.629-0.562-0.94
	c-1.415,0.908-3.302,0.523-4.238-0.881c-0.938-1.401-0.571-3.285,0.804-4.246c-0.216-0.297-0.432-0.59-0.654-0.881
	c-1.318,1.037-3.229,0.838-4.298-0.464c-1.067-1.302-0.891-3.212,0.383-4.304c-0.247-0.272-0.491-0.543-0.738-0.813
	c-1.213,1.158-3.129,1.148-4.32-0.043c-1.192-1.191-1.201-3.108-0.041-4.32c-0.271-0.247-0.543-0.492-0.817-0.736
	c-1.089,1.272-3.001,1.448-4.302,0.381c-1.305-1.071-1.501-2.979-0.465-4.299c-0.29-0.222-0.586-0.437-0.879-0.652
	c-0.964,1.376-2.847,1.737-4.249,0.8c-1.406-0.937-1.788-2.822-0.88-4.237c-0.312-0.191-0.625-0.376-0.939-0.561
	c-0.82,1.466-2.663,2.015-4.151,1.221c-1.494-0.799-2.061-2.641-1.291-4.142c-0.327-0.159-0.661-0.31-0.991-0.464
	c-0.669,1.542-2.452,2.274-4.015,1.627c-1.563-0.65-2.31-2.43-1.687-3.997c-0.341-0.126-0.686-0.245-1.029-0.364
	C98.88,6.188,97.174,7.089,95.557,6.6c-1.617-0.491-2.534-2.191-2.069-3.811c-0.352-0.094-0.709-0.174-1.062-0.261
	c-0.356,1.644-1.966,2.708-3.622,2.378c-1.657-0.33-2.733-1.924-2.436-3.579c-0.357-0.058-0.721-0.106-1.084-0.156
	c-0.196,1.668-1.69,2.877-3.369,2.714c-1.677-0.165-2.903-1.643-2.772-3.315c-0.363-0.021-0.73-0.034-1.093-0.052
	c-0.042,1.677-1.405,3.025-3.089,3.025c-1.685-0.002-3.048-1.348-3.085-3.025c-0.365,0.018-0.731,0.032-1.096,0.052
	c0.128,1.672-1.095,3.15-2.773,3.315c-1.679,0.163-3.169-1.046-3.368-2.714c-0.362,0.05-0.726,0.099-1.086,0.156
	c0.299,1.655-0.778,3.249-2.433,3.579c-1.658,0.331-3.264-0.734-3.622-2.378c-0.354,0.085-0.711,0.167-1.062,0.259
	c0.463,1.621-0.451,3.321-2.07,3.811c-1.619,0.491-3.325-0.412-3.839-2.016c-0.346,0.121-0.691,0.238-1.033,0.366
	c0.623,1.567-0.123,3.35-1.687,3.997c-1.561,0.646-3.344-0.085-4.015-1.627c-0.331,0.154-0.662,0.305-0.993,0.464
	c0.771,1.5,0.204,3.342-1.288,4.141c-1.487,0.795-3.331,0.246-4.152-1.22c-0.314,0.185-0.629,0.37-0.94,0.559
	c0.912,1.417,0.525,3.303-0.879,4.239c-1.4,0.937-3.287,0.574-4.249-0.8c-0.294,0.215-0.588,0.43-0.881,0.652
	c1.039,1.319,0.838,3.228-0.463,4.299c-1.304,1.067-3.212,0.892-4.302-0.381c-0.275,0.244-0.544,0.489-0.815,0.736
	c1.16,1.212,1.148,3.129-0.042,4.32c-1.191,1.191-3.109,1.201-4.32,0.043c-0.249,0.269-0.494,0.54-0.739,0.813
	c1.273,1.09,1.452,3.002,0.383,4.304c-1.072,1.302-2.979,1.501-4.298,0.464c-0.223,0.291-0.436,0.584-0.654,0.879
	c1.376,0.962,1.743,2.847,0.804,4.248c-0.939,1.405-2.825,1.789-4.241,0.879c-0.188,0.313-0.375,0.629-0.561,0.942
	c1.468,0.819,2.018,2.662,1.224,4.151c-0.799,1.492-2.645,2.061-4.142,1.288c-0.16,0.33-0.31,0.661-0.464,0.992
	C9.32,44,10.05,45.784,9.405,47.346c-0.649,1.564-2.431,2.311-3.998,1.688c-0.127,0.341-0.244,0.687-0.365,1.031
	c1.604,0.515,2.506,2.22,2.014,3.838c-0.49,1.62-2.189,2.535-3.811,2.071c-0.09,0.354-0.172,0.708-0.26,1.064
	c1.647,0.356,2.709,1.962,2.38,3.62c-0.33,1.655-1.925,2.734-3.583,2.436c-0.054,0.358-0.104,0.721-0.155,1.084
	c1.668,0.197,2.881,1.69,2.714,3.367C4.179,69.223,2.7,70.449,1.028,70.32c-0.019,0.365-0.036,0.729-0.05,1.094
	c1.675,0.037,3.023,1.401,3.023,3.085c0,1.685-1.348,3.05-3.023,3.089c0.014,0.365,0.031,0.729,0.05,1.093
	c1.672-0.128,3.15,1.097,3.316,2.773c0.167,1.679-1.047,3.171-2.716,3.37c0.051,0.361,0.101,0.725,0.155,1.084
	c1.658-0.299,3.253,0.778,3.583,2.435c0.329,1.658-0.733,3.265-2.38,3.621c0.087,0.354,0.17,0.711,0.26,1.062
	c1.621-0.464,3.321,0.452,3.812,2.07c0.491,1.62-0.412,3.323-2.015,3.84c0.121,0.346,0.237,0.689,0.365,1.031
	c1.566-0.623,3.348,0.123,3.998,1.688c0.645,1.561-0.085,3.345-1.628,4.016c0.154,0.33,0.304,0.663,0.464,0.991
	c1.497-0.773,3.343-0.205,4.142,1.287c0.795,1.489,0.244,3.334-1.224,4.152c0.186,0.315,0.373,0.629,0.561,0.942
	c1.416-0.911,3.301-0.526,4.241,0.878c0.938,1.399,0.572,3.286-0.804,4.247c0.218,0.296,0.431,0.59,0.654,0.883
	c1.317-1.041,3.229-0.842,4.298,0.462c1.069,1.306,0.89,3.214-0.383,4.305c0.245,0.272,0.491,0.544,0.739,0.814
	c1.21-1.16,3.129-1.149,4.32,0.04c1.19,1.194,1.202,3.11,0.042,4.322c0.271,0.248,0.54,0.489,0.815,0.737
	c1.09-1.272,2.999-1.45,4.302-0.383c1.306,1.072,1.502,2.981,0.463,4.301c0.293,0.22,0.587,0.435,0.883,0.65
	c0.959-1.372,2.846-1.738,4.247-0.802c1.404,0.938,1.791,2.824,0.879,4.239c0.312,0.19,0.626,0.377,0.94,0.562
	c0.82-1.467,2.665-2.018,4.152-1.222c1.495,0.797,2.059,2.643,1.288,4.14c0.331,0.159,0.663,0.312,0.993,0.466
	c0.671-1.542,2.454-2.274,4.015-1.63c1.564,0.65,2.31,2.432,1.687,4c0.343,0.125,0.688,0.244,1.034,0.363
	c0.512-1.604,2.219-2.505,3.836-2.015c1.621,0.49,2.536,2.189,2.07,3.811c0.353,0.092,0.709,0.173,1.063,0.26
	c0.356-1.644,1.964-2.708,3.622-2.377c1.657,0.327,2.734,1.922,2.433,3.58c0.36,0.055,0.722,0.104,1.086,0.152
	c0.198-1.668,1.689-2.878,3.368-2.712c1.678,0.164,2.904,1.641,2.773,3.313c0.365,0.021,0.731,0.035,1.096,0.051
	c0.038-1.674,1.401-3.023,3.085-3.023c1.684,0,3.047,1.35,3.086,3.023c0.365-0.016,0.732-0.03,1.096-0.051
	c-0.128-1.673,1.096-3.149,2.772-3.315c1.679-0.164,3.172,1.046,3.369,2.714c0.363-0.049,0.727-0.098,1.084-0.151
	c-0.298-1.66,0.778-3.254,2.436-3.584c1.656-0.328,3.265,0.736,3.622,2.38c0.354-0.087,0.711-0.168,1.062-0.26
	c-0.465-1.621,0.452-3.32,2.069-3.811c1.617-0.492,3.323,0.411,3.842,2.015c0.344-0.119,0.688-0.238,1.029-0.364
	c-0.623-1.567,0.123-3.349,1.687-3.999c1.562-0.645,3.346,0.085,4.015,1.628c0.33-0.153,0.664-0.305,0.994-0.464
	c-0.772-1.498-0.206-3.343,1.288-4.14c1.488-0.796,3.331-0.245,4.151,1.222c0.314-0.185,0.628-0.371,0.939-0.562
	c-0.908-1.414-0.526-3.301,0.88-4.238c1.402-0.937,3.285-0.572,4.249,0.801c0.293-0.215,0.589-0.43,0.879-0.649
	c-1.036-1.319-0.84-3.229,0.463-4.301c1.303-1.067,3.215-0.892,4.304,0.383c0.274-0.248,0.544-0.489,0.817-0.737
	c-1.16-1.212-1.151-3.129,0.041-4.322c1.191-1.189,3.107-1.2,4.32-0.04c0.247-0.271,0.491-0.542,0.738-0.814
	c-1.273-1.091-1.45-2.999-0.383-4.305c1.069-1.303,2.979-1.503,4.298-0.465c0.223-0.29,0.438-0.584,0.654-0.88
	c-1.375-0.961-1.741-2.846-0.804-4.247c0.937-1.404,2.823-1.789,4.238-0.88c0.189-0.312,0.378-0.625,0.562-0.94
	c-1.463-0.821-2.019-2.663-1.22-4.152c0.797-1.492,2.642-2.061,4.142-1.289c0.156-0.328,0.311-0.659,0.462-0.992
	c-1.545-0.669-2.271-2.452-1.628-4.013c0.652-1.564,2.431-2.311,4-1.688c0.126-0.342,0.242-0.687,0.362-1.032
	C143.272,98.421,142.37,96.718,142.863,95.098"/>
<path fill="#FFFFFF" d="M52.986,65.354c1.376-0.372,2.346-1.156,2.918-2.361c0.57-1.2,0.663-2.519,0.278-3.953
	c-0.307-1.141-0.92-1.966-1.839-2.472c-0.92-0.502-1.933-0.607-3.045-0.311c-1.316,0.355-2.286,1.099-2.902,2.237
	c-0.62,1.14-0.734,2.441-0.342,3.904c0.314,1.171,0.932,2.032,1.847,2.583C50.82,65.537,51.845,65.659,52.986,65.354"/>
<path fill="#FFFFFF" d="M122.432,67.795c-0.47,0.126-0.867,0.334-1.197,0.627c-0.327,0.291-1.104,1.134-2.326,2.53
	c-3.92,4.523-6.582,6.977-7.984,7.354c-0.557,0.148-1.101,0.021-1.632-0.385c-0.531-0.403-1.205-1.199-2.027-2.39
	c-1.579-2.268-2.875-4.829-3.894-7.686l0.321-0.367c1.544-1.951,2.7-3.308,3.464-4.077l3.16-3.288l2.224-2.382
	c1.17-1.129,1.889-1.948,2.16-2.459c0.27-0.51,0.306-1.131,0.111-1.859c-0.149-0.553-0.431-1.042-0.839-1.466
	c-0.411-0.42-0.906-0.717-1.487-0.892c-0.577-0.171-1.133-0.19-1.656-0.05c-1.169,0.315-3.225,1.996-6.16,5.045
	c-3.403,3.544-5.786,6.333-7.15,8.362l3.979-22.624c0.343-1.875,0.418-3.165,0.229-3.867c-0.254-0.934-0.771-1.607-1.555-2.026
	c-0.784-0.414-1.657-0.489-2.62-0.23c-0.996,0.265-1.708,0.762-2.14,1.487c-0.431,0.726-0.84,2.128-1.219,4.2l-6.491,36.874
	c-0.206,0.165-0.418,0.327-0.636,0.522l-3.65,3.186c-1.91,1.641-3.948,3.143-6.116,4.507c-2.186,1.435-4.035,2.351-5.554,2.759
	c-2.654,0.714-4.275-0.009-4.854-2.168c-0.339-1.255-0.186-2.96,0.455-5.12c0.642-2.156,1.625-4.327,2.949-6.515
	c1.324-2.183,2.834-4.084,4.529-5.696c-0.367,2.134-0.42,3.684-0.162,4.648c0.22,0.818,0.704,1.425,1.452,1.82
	c0.747,0.392,1.588,0.464,2.522,0.21c1.343-0.358,2.197-1.542,2.567-3.555l0.39-2.218l0.596-3.544
	c0.035-0.102,0.128-0.88,0.269-2.327c0.07-1.146,0.025-2.014-0.133-2.596c-0.261-0.968-0.812-1.656-1.661-2.069
	c-0.845-0.414-1.839-0.472-2.979-0.167c-1.805,0.487-3.841,1.635-6.094,3.445c-2.251,1.81-4.286,3.945-6.097,6.406
	c-1.664,2.199-3.044,4.526-4.142,6.979c-1.094,2.454-1.794,4.804-2.102,7.046c-0.156,1.125-0.206,2.202-0.161,3.227
	c-0.26,0.342-0.535,0.71-0.833,1.117c-2.716,3.642-4.704,5.631-5.957,5.968c-0.906,0.242-1.482-0.104-1.732-1.037
	c-0.147-0.553-0.1-1.538,0.147-2.951l2.877-16.551c0.349-1.847,0.428-3.132,0.23-3.865c-0.249-0.931-0.772-1.604-1.575-2.013
	c-0.796-0.411-1.665-0.492-2.6-0.242c-0.996,0.267-1.711,0.771-2.153,1.516c-0.442,0.746-0.843,2.139-1.205,4.175l-2.879,16.215
	c-0.102,0.6-0.17,1.149-0.242,1.705c-0.33,0.422-0.677,0.88-1.069,1.418c-1.551,2.047-2.749,3.501-3.597,4.371
	c-0.846,0.867-1.634,1.401-2.362,1.596c-0.907,0.243-1.483-0.098-1.736-1.035c-0.149-0.554-0.1-1.536,0.148-2.948l6.382-36.4
	c0.356-1.816,0.433-3.105,0.229-3.865c-0.25-0.932-0.77-1.606-1.552-2.024c-0.787-0.412-1.658-0.489-2.623-0.23
	c-0.992,0.265-1.706,0.761-2.137,1.489c-0.431,0.723-0.835,2.125-1.218,4.197l-6.38,36.076c-0.327,1.936-0.509,3.519-0.539,4.747
	c-0.032,1.229,0.085,2.325,0.342,3.286c0.517,1.928,1.576,3.334,3.177,4.22c1.6,0.884,3.425,1.05,5.47,0.502
	c2.951-0.793,5.935-2.897,8.947-6.282c0.484,0.569,1.044,1.064,1.72,1.444c1.587,0.891,3.417,1.055,5.492,0.497
	c3.337-0.896,6.714-3.447,10.129-7.654c0.073,0.075,0.136,0.16,0.208,0.235c1.247,1.197,2.806,1.934,4.685,2.212
	c1.876,0.283,3.97,0.111,6.276-0.508c2.216-0.596,4.494-1.558,6.829-2.892c1.973-1.123,4.025-2.537,6.143-4.208
	c0.009,0.057,0.01,0.13,0.024,0.181c0.252,0.935,0.772,1.615,1.56,2.047c0.792,0.431,1.665,0.517,2.632,0.257
	c0.993-0.267,1.708-0.779,2.146-1.539c0.438-0.759,0.842-2.142,1.211-4.153l1.484-8.291l0.099-0.168
	c1.011-1.365,1.99-2.551,2.942-3.56c1.462,3.586,3.145,6.657,5.054,9.211c1.13,1.514,2.283,2.497,3.465,2.944
	c1.188,0.452,2.57,0.461,4.148,0.039c1.521-0.409,3.047-1.187,4.588-2.336c1.542-1.147,3.394-2.878,5.561-5.184
	c2.188-2.339,3.666-4.153,4.412-5.434c0.753-1.284,1.005-2.39,0.753-3.326c-0.201-0.759-0.692-1.363-1.471-1.812
	C123.959,67.718,123.19,67.591,122.432,67.795"/>
<path fill="#FFFFFF" d="M129.84,60.631c-0.713,0.216-5.151,5.354-5.151,5.354c0.697-0.592,6.239,0.7,6.932,0.577
	c1.547-0.275,2.815-2.295,2.325-3.932C133.452,60.994,131.616,60.1,129.84,60.631"/>
</svg>
