<?xml version="1.0" encoding="utf-8"?>
<!-- Generator: Adobe Illustrator 16.0.4, SVG Export Plug-In . SVG Version: 6.00 Build 0)  -->
<!DOCTYPE svg PUBLIC "-//W3C//DTD SVG 1.1//EN" "http://www.w3.org/Graphics/SVG/1.1/DTD/svg11.dtd">
<svg version="1.1" id="Layer_1" xmlns="http://www.w3.org/2000/svg" xmlns:xlink="http://www.w3.org/1999/xlink" x="0px" y="0px"
	 width="841.89px" height="595.28px" viewBox="0 0 841.89 595.28" enable-background="new 0 0 841.89 595.28" xml:space="preserve">
<path fill="#ED0A71" d="M619.266,365.014c1.43-4.719,6.375-7.383,11.099-6.037c0.264-1.021,0.504-2.059,0.759-3.09
	c-4.798-1.041-7.888-5.719-6.935-10.547c0.962-4.826,5.611-7.963,10.437-7.098c0.157-1.045,0.3-2.1,0.448-3.158
	c-4.862-0.574-8.387-4.918-7.901-9.809c0.481-4.885,4.778-8.451,9.646-8.076c0.061-1.064,0.106-2.129,0.148-3.193
	c-4.876-0.105-8.799-4.08-8.799-8.988s3.923-8.877,8.799-8.988c-0.042-1.064-0.088-2.124-0.148-3.188
	c-4.867,0.375-9.169-3.197-9.65-8.082c-0.48-4.885,3.044-9.233,7.906-9.807c-0.148-1.06-0.291-2.114-0.448-3.16
	c-4.825,0.87-9.475-2.271-10.437-7.092c-0.958-4.834,2.137-9.507,6.935-10.547c-0.255-1.037-0.495-2.068-0.759-3.095
	c-4.724,1.347-9.669-1.318-11.099-6.037c-1.434-4.709,1.193-9.673,5.866-11.172c-0.352-1.008-0.689-2.017-1.055-3.007
	c-4.57,1.813-9.752-0.361-11.644-4.917c-1.883-4.547,0.235-9.738,4.736-11.69c-0.443-0.967-0.893-1.934-1.346-2.892
	c-4.372,2.248-9.743,0.592-12.065-3.752c-2.322-4.339-0.712-9.705,3.554-12.092c-0.537-0.912-1.083-1.832-1.634-2.739
	c-4.121,2.646-9.617,1.526-12.347-2.567c-2.729-4.08-1.665-9.567,2.341-12.366c-0.629-0.865-1.259-1.721-1.906-2.567
	c-3.84,3.021-9.4,2.442-12.518-1.351c-3.109-3.793-2.596-9.358,1.114-12.537c-0.717-0.791-1.43-1.582-2.15-2.369
	c-3.53,3.373-9.114,3.345-12.583-0.125c-3.47-3.469-3.498-9.053-0.121-12.583c-0.786-0.721-1.582-1.434-2.378-2.146
	c-3.173,3.706-8.738,4.219-12.527,1.11c-3.803-3.118-4.376-8.678-1.355-12.522c-0.847-0.643-1.707-1.272-2.562-1.897
	c-2.804,4.006-8.29,5.061-12.375,2.332c-4.099-2.729-5.209-8.221-2.562-12.342c-0.907-0.555-1.823-1.096-2.739-1.633
	c-2.387,4.27-7.753,5.871-12.092,3.558c-4.349-2.327-6-7.693-3.757-12.065c-0.953-0.462-1.925-0.902-2.887-1.351
	c-1.947,4.492-7.143,6.625-11.694,4.742c-4.553-1.892-6.727-7.078-4.913-11.644c-0.99-0.365-1.999-0.712-2.998-1.059
	c-1.508,4.672-6.477,7.295-11.186,5.87c-4.714-1.429-7.384-6.379-6.028-11.098c-1.026-0.273-2.067-0.509-3.095-0.759
	c-1.041,4.788-5.727,7.888-10.552,6.925s-7.962-5.607-7.092-10.427c-1.046-0.167-2.101-0.305-3.16-0.453
	c-0.568,4.862-4.922,8.382-9.812,7.906c-4.885-0.481-8.457-4.784-8.077-9.655c-1.06-0.06-2.128-0.102-3.183-0.152
	c-0.12,4.885-4.09,8.812-8.996,8.812c-4.906-0.005-8.877-3.928-8.986-8.812c-1.064,0.051-2.13,0.092-3.192,0.152
	c0.375,4.871-3.192,9.174-8.077,9.655c-4.892,0.477-9.231-3.044-9.81-7.906c-1.053,0.148-2.114,0.287-3.165,0.453
	c0.872,4.82-2.264,9.465-7.087,10.427c-4.828,0.962-9.507-2.137-10.55-6.925c-1.032,0.245-2.07,0.486-3.093,0.754
	c1.349,4.724-1.314,9.673-6.03,11.098c-4.714,1.429-9.685-1.198-11.182-5.871c-1.008,0.352-2.012,0.694-3.007,1.064
	c1.813,4.566-0.356,9.756-4.913,11.644c-4.547,1.883-9.74-0.25-11.694-4.742c-0.962,0.449-1.929,0.888-2.892,1.351
	c2.246,4.372,0.592,9.738-3.752,12.061c-4.334,2.317-9.701,0.717-12.092-3.553c-0.916,0.537-1.834,1.078-2.739,1.629
	c2.653,4.126,1.529,9.617-2.563,12.347c-4.078,2.729-9.574,1.67-12.373-2.332c-0.858,0.625-1.716,1.254-2.567,1.897
	c3.025,3.844,2.442,9.405-1.351,12.522c-3.796,3.109-9.356,2.596-12.53-1.11c-0.8,0.713-1.587,1.425-2.374,2.146
	c3.377,3.53,3.345,9.114-0.123,12.583c-3.469,3.47-9.058,3.498-12.583,0.125c-0.724,0.782-1.438,1.573-2.151,2.369
	c3.706,3.173,4.226,8.744,1.115,12.537c-3.123,3.793-8.678,4.372-12.521,1.351c-0.65,0.847-1.27,1.703-1.906,2.563
	c4.008,2.799,5.075,8.29,2.341,12.37c-2.734,4.094-8.228,5.213-12.35,2.562c-0.55,0.912-1.094,1.832-1.635,2.744
	c4.274,2.387,5.875,7.753,3.564,12.092c-2.327,4.344-7.703,6-12.062,3.752c-0.467,0.958-0.905,1.924-1.353,2.887
	c4.494,1.952,6.622,7.147,4.742,11.695c-1.89,4.557-7.083,6.731-11.644,4.917c-0.37,0.99-0.71,1.999-1.062,3.002
	c4.67,1.499,7.3,6.467,5.863,11.176c-1.425,4.719-6.375,7.384-11.098,6.037c-0.262,1.027-0.502,2.059-0.754,3.095
	c4.795,1.041,7.888,5.718,6.932,10.547c-0.962,4.82-5.609,7.961-10.437,7.092c-0.157,1.045-0.303,2.1-0.451,3.16
	c4.86,0.574,8.389,4.922,7.906,9.807c-0.479,4.885-4.783,8.457-9.654,8.082c-0.056,1.064-0.104,2.123-0.146,3.188
	c4.878,0.111,8.806,4.08,8.806,8.988s-3.927,8.883-8.806,8.994c0.042,1.064,0.09,2.123,0.146,3.188
	c4.871-0.375,9.176,3.191,9.659,8.076c0.483,4.891-3.051,9.234-7.911,9.812c0.148,1.055,0.293,2.109,0.451,3.16
	c4.828-0.871,9.475,2.266,10.437,7.092c0.956,4.828-2.137,9.506-6.932,10.547c0.252,1.031,0.493,2.068,0.754,3.096
	c4.723-1.352,9.673,1.312,11.103,6.031c1.432,4.715-1.198,9.678-5.868,11.182c0.352,1.004,0.691,2.008,1.062,3.002
	c4.562-1.812,9.754,0.357,11.644,4.914c1.88,4.547-0.248,9.746-4.742,11.699c0.448,0.961,0.886,1.928,1.353,2.887
	c4.36-2.254,9.736-0.598,12.062,3.746c2.315,4.34,0.71,9.711-3.564,12.098c0.542,0.916,1.085,1.832,1.635,2.744
	c4.122-2.656,9.615-1.537,12.35,2.557c2.734,4.076,1.667,9.572-2.341,12.371c0.636,0.859,1.256,1.717,1.906,2.566
	c3.837-3.025,9.403-2.447,12.521,1.352c3.111,3.799,2.591,9.359-1.115,12.537c0.712,0.791,1.427,1.582,2.151,2.369
	c3.525-3.377,9.114-3.346,12.583,0.119c3.467,3.475,3.5,9.059,0.123,12.588c0.787,0.723,1.573,1.43,2.374,2.146
	c3.173-3.705,8.734-4.223,12.53-1.109c3.803,3.117,4.376,8.678,1.351,12.521c0.852,0.639,1.709,1.268,2.572,1.896
	c2.794-4,8.29-5.064,12.368-2.336c4.092,2.73,5.216,8.227,2.563,12.348c0.909,0.555,1.823,1.096,2.739,1.633
	c2.387-4.27,7.758-5.871,12.092-3.557c4.354,2.322,5.998,7.697,3.752,12.059c0.962,0.463,1.929,0.908,2.892,1.355
	c1.954-4.49,7.147-6.623,11.694-4.746c4.557,1.893,6.727,7.084,4.913,11.648c0.999,0.365,2.003,0.709,3.012,1.061
	c1.492-4.672,6.462-7.295,11.172-5.871c4.721,1.43,7.388,6.379,6.03,11.098c1.027,0.27,2.065,0.51,3.097,0.76
	c1.039-4.789,5.722-7.889,10.55-6.926c4.827,0.957,7.964,5.602,7.087,10.428c1.05,0.162,2.103,0.305,3.165,0.447
	c0.578-4.857,4.922-8.381,9.81-7.9c4.885,0.477,8.457,4.779,8.077,9.65c1.062,0.061,2.128,0.102,3.192,0.148
	c0.109-4.877,4.081-8.805,8.986-8.805s8.875,3.928,8.986,8.805c1.064-0.047,2.133-0.088,3.192-0.148
	c-0.37-4.871,3.192-9.174,8.077-9.654c4.89-0.477,9.238,3.047,9.812,7.904c1.06-0.143,2.114-0.285,3.16-0.443
	c-0.87-4.834,2.267-9.475,7.092-10.436c4.825-0.959,9.507,2.141,10.552,6.93c1.027-0.25,2.068-0.49,3.095-0.76
	c-1.355-4.719,1.314-9.668,6.028-11.098c4.709-1.43,9.678,1.199,11.186,5.871c0.999-0.352,2.008-0.695,2.998-1.064
	c-1.813-4.561,0.36-9.752,4.913-11.645c4.552-1.877,9.747,0.246,11.694,4.742c0.962-0.449,1.934-0.889,2.896-1.352
	c-2.253-4.365-0.602-9.736,3.747-12.059c4.339-2.314,9.705-0.713,12.092,3.557c0.916-0.537,1.832-1.078,2.739-1.637
	c-2.646-4.117-1.536-9.613,2.562-12.344c4.085-2.729,9.571-1.67,12.375,2.332c0.855-0.625,1.716-1.254,2.562-1.893
	c-3.021-3.844-2.447-9.404,1.352-12.521c3.793-3.113,9.358-2.602,12.531,1.109c0.796-0.717,1.583-1.424,2.378-2.146
	c-3.377-3.529-3.349-9.117,0.121-12.588c3.469-3.465,9.053-3.496,12.583-0.119c0.721-0.787,1.434-1.578,2.15-2.369
	c-3.71-3.178-4.224-8.738-1.114-12.537c3.117-3.793,8.678-4.377,12.518-1.355c0.647-0.846,1.277-1.703,1.906-2.562
	c-4.006-2.799-5.07-8.291-2.341-12.371c2.729-4.094,8.226-5.213,12.347-2.562c0.551-0.906,1.097-1.822,1.634-2.738
	c-4.266-2.393-5.876-7.758-3.554-12.098c2.322-4.344,7.693-6,12.065-3.752c0.453-0.957,0.902-1.92,1.346-2.887
	c-4.501-1.951-6.619-7.146-4.741-11.693c1.896-4.557,7.078-6.727,11.648-4.918c0.365-0.994,0.703-1.998,1.055-3.002
	C620.459,374.691,617.832,369.729,619.266,365.014"/>
<path fill="#FFFFFF" d="M356.471,280.005c3.981-1.073,6.789-3.345,8.443-6.828c1.649-3.474,1.917-7.291,0.805-11.436
	c-0.886-3.303-2.662-5.69-5.32-7.152c-2.663-1.453-5.593-1.758-8.811-0.897c-3.805,1.027-6.613,3.178-8.394,6.472
	c-1.795,3.294-2.124,7.06-0.99,11.292c0.909,3.387,2.695,5.88,5.343,7.476C350.205,280.532,353.17,280.888,356.471,280.005"/>
<path fill="#FFFFFF" d="M557.383,287.069c-1.36,0.365-2.512,0.967-3.465,1.813c-0.944,0.842-3.192,3.28-6.731,7.318
	c-11.339,13.086-19.041,20.184-23.098,21.276c-1.61,0.43-3.183,0.061-4.719-1.111c-1.536-1.17-3.488-3.473-5.866-6.916
	c-4.57-6.559-8.317-13.97-11.269-22.237l0.934-1.06c4.465-5.644,7.81-9.571,10.021-11.796l9.142-9.511l6.435-6.893
	c3.382-3.266,5.463-5.634,6.25-7.115c0.777-1.476,0.884-3.271,0.319-5.38c-0.431-1.601-1.245-3.016-2.425-4.237
	c-1.188-1.217-2.623-2.077-4.302-2.582c-1.67-0.495-3.28-0.55-4.793-0.144c-3.382,0.912-9.331,5.773-17.824,14.596
	c-9.845,10.256-16.737,18.324-20.688,24.194l11.514-65.455c0.99-5.426,1.208-9.155,0.662-11.186
	c-0.731-2.702-2.226-4.649-4.497-5.861c-2.267-1.198-4.792-1.416-7.582-0.666c-2.882,0.768-4.94,2.202-6.189,4.302
	c-1.244,2.1-2.429,6.157-3.525,12.153L456.908,317.25c-0.597,0.477-1.212,0.947-1.841,1.512l-10.562,9.215
	c-5.528,4.748-11.422,9.092-17.695,13.041c-6.321,4.15-11.671,6.801-16.066,7.98c-7.679,2.064-12.368-0.027-14.045-6.273
	c-0.981-3.627-0.537-8.562,1.316-14.812c1.857-6.236,4.7-12.518,8.531-18.846c3.833-6.314,8.2-11.815,13.104-16.479
	c-1.062,6.176-1.217,10.658-0.47,13.447c0.636,2.369,2.038,4.123,4.203,5.266c2.16,1.133,4.594,1.342,7.296,0.609
	c3.886-1.039,6.356-4.463,7.429-10.287l1.129-6.417l1.722-10.256c0.102-0.296,0.37-2.544,0.776-6.731
	c0.204-3.317,0.074-5.829-0.384-7.513c-0.754-2.799-2.35-4.788-4.807-5.986c-2.442-1.198-5.319-1.365-8.618-0.481
	c-5.225,1.407-11.114,4.728-17.632,9.965c-6.513,5.237-12.4,11.413-17.639,18.532c-4.813,6.366-8.808,13.096-11.981,20.194
	c-3.165,7.1-5.19,13.896-6.081,20.381c-0.451,3.258-0.597,6.375-0.465,9.336c-0.754,0.99-1.55,2.055-2.413,3.234
	c-7.857,10.533-13.608,16.289-17.232,17.264c-2.621,0.699-4.289-0.301-5.012-3.002c-0.426-1.6-0.289-4.449,0.425-8.535l8.325-47.885
	c1.009-5.343,1.235-9.062,0.666-11.181c-0.719-2.692-2.234-4.64-4.557-5.824c-2.306-1.189-4.818-1.425-7.522-0.699
	c-2.879,0.773-4.95,2.23-6.229,4.386s-2.44,6.185-3.485,12.078l-8.33,46.914c-0.293,1.734-0.493,3.322-0.701,4.932
	c-0.953,1.217-1.957,2.545-3.093,4.104c-4.487,5.92-7.95,10.125-10.404,12.643c-2.447,2.512-4.728,4.057-6.835,4.617
	c-2.623,0.707-4.291-0.283-5.021-2.994c-0.43-1.605-0.289-4.445,0.428-8.529l18.465-105.309c1.032-5.255,1.253-8.984,0.662-11.181
	c-0.724-2.697-2.226-4.649-4.49-5.857c-2.278-1.193-4.799-1.416-7.589-0.666c-2.87,0.768-4.936,2.202-6.183,4.307
	c-1.244,2.091-2.415,6.148-3.522,12.144l-18.456,104.37c-0.948,5.598-1.474,10.178-1.559,13.734c-0.09,3.553,0.245,6.727,0.99,9.508
	c1.497,5.574,4.562,9.645,9.19,12.207c4.628,2.559,9.909,3.035,15.826,1.449c8.538-2.291,17.172-8.383,25.886-18.172
	c1.401,1.646,3.021,3.08,4.978,4.178c4.591,2.576,9.886,3.053,15.888,1.438c9.655-2.59,19.423-9.973,29.304-22.145
	c0.213,0.217,0.393,0.467,0.602,0.68c3.606,3.465,8.119,5.598,13.552,6.402c5.429,0.82,11.484,0.32,18.158-1.471
	c6.414-1.725,13.001-4.506,19.755-8.363c5.709-3.252,11.648-7.346,17.773-12.176c0.023,0.162,0.028,0.375,0.069,0.521
	c0.727,2.707,2.234,4.674,4.511,5.922c2.295,1.244,4.82,1.494,7.614,0.744c2.873-0.771,4.941-2.256,6.209-4.453
	c1.268-2.193,2.433-6.195,3.502-12.016l4.297-23.986l0.282-0.484c2.924-3.951,5.76-7.385,8.513-10.303
	c4.232,10.377,9.1,19.258,14.623,26.65c3.266,4.377,6.605,7.223,10.024,8.521c3.438,1.305,7.435,1.332,12,0.107
	c4.404-1.18,8.812-3.43,13.272-6.756c4.46-3.32,9.816-8.326,16.09-14.996c6.328-6.764,10.603-12.016,12.763-15.721
	c2.18-3.715,2.905-6.916,2.18-9.622c-0.583-2.197-2.008-3.946-4.257-5.241C561.801,286.842,559.58,286.477,557.383,287.069"/>
<path fill="#FFFFFF" d="M578.815,266.339c-2.063,0.625-14.905,15.488-14.905,15.488c2.017-1.712,18.051,2.026,20.059,1.67
	c4.474-0.796,8.142-6.639,6.722-11.375C589.266,267.389,583.955,264.803,578.815,266.339"/>
</svg>
