<?xml version="1.0" encoding="utf-8"?>
<!-- Generator: Adobe Illustrator 16.0.4, SVG Export Plug-In . SVG Version: 6.00 Build 0)  -->
<!DOCTYPE svg PUBLIC "-//W3C//DTD SVG 1.1//EN" "http://www.w3.org/Graphics/SVG/1.1/DTD/svg11.dtd">
<svg version="1.1" id="Layer_1" xmlns="http://www.w3.org/2000/svg" xmlns:xlink="http://www.w3.org/1999/xlink" x="0px" y="0px"
	 width="150px" height="100px" viewBox="0 0 150 100" enable-background="new 0 0 150 100" xml:space="preserve">
<g>
	<path fill="#00498F" d="M0.471,50c0-24.992,33.337-45.25,74.458-45.25c41.123,0,74.458,20.259,74.458,45.25
		c0,24.99-33.335,45.25-74.458,45.25C33.808,95.25,0.471,74.99,0.471,50"/>
	<path fill="#FFFFFF" d="M126.414,42.539c-0.062-3.987-2.893-6.775-2.925-10.571c0.383-0.263,0.87-0.627,1.168-0.975
		c0.407-0.509,0.838-1.227,0.436-1.966c-0.243-0.227-0.597-0.337-0.929-0.249c-0.981,0.327-1.295,1.352-1.669,2.093l-5.746,7.122
		c-2.071-0.332-4.13,0.087-5.571,1.69c-1.742,1.724-1.967,4.65-1.133,6.861l-1.845,1.879c-1.255,1.083-2.697,2.606-4.042,2.945
		c-0.471,0.086-0.921-0.046-1.133-0.437c-0.347-0.898,0.178-1.837,0.473-2.63l8.308-20.254l12.449-1.532l1.543-2.731l-12.39-0.003
		l1.182-2.665l-3.412,0.193l-1.101,2.35H64.661l1.152,1.064c2.21,2.088,2.699,5.433,2.14,8.219l18.776-2.072l20.998-2.262
		c-0.886,1.756-1.724,3.568-2.661,5.275l-0.786-0.313c-3.951-1.881-8.888-0.471-12.067,1.688c-4.335-1.688-8.951,0.139-12.449,2.438
		c-0.334-1.133-1.275-2.351-2.509-2.628c-2.896-0.714-5.796,1.531-7.3,2.674c-0.386-0.28-0.973-0.585-1.409-0.759
		c-1.2-0.47-2.602-0.26-3.796,0.157c0.821-1.341,1.533-2.734,1.848-4.301c0.538-3.293-0.769-6.53-3.501-8.586
		c0.801-0.959,1.916-1.429,2.855-2.195c0,0,0.307-0.17,0.178-0.468c-0.116-0.265-0.235-0.192-0.405-0.193
		c-1.584,0.276-3.546,1.408-4.309,1.814c-3.797-1.513-8.314-1.885-12.495-1.188c-6.444,1.252-12.452,4.214-16.857,9.698
		c-1.812,2.403-3.48,5.802-1.76,8.745c1.204,1.652,3.048,2.611,5.104,2.229c1.357-0.317,2.471-1.515,3.01-2.77
		c-1.115-0.191-2.508-0.797-2.786-2.067c-0.382-2.806,1.027-5.109,2.629-7.216c3.954-4.388,9.057-6.619,14.699-6.95
		c1.949,0.019,3.965,0.087,5.312,1.363l-3.171,2.017c-4.424,3.24-7.313,8.029-10.153,12.416c-1.538-0.183-3.151-0.123-4.457,0.592
		c-0.766,0.504-1.343,1.289-1.378,2.197c-0.034,1.494,1.324,2.679,2.562,3.323l-0.365,0.873l-3.62,7.906
		c-0.566,1.127-1.082,2.333-1.579,3.242c-1.026-0.436-2.291-0.805-3.492-0.612c-2.455,0.206-4.807,2.385-5.521,4.7
		c-1.098,2.874-0.33,6.096,1.602,8.342c-1.081,1.498-2.735,2.543-4.388,3.102c-1.115,0.261-2.664,0.654-3.692-0.123
		c0.802-0.124,1.567-0.436,2.123-1.062c0.628-0.592,0.906-1.564,0.734-2.264c-0.229-0.976-1.186-1.933-2.178-2.158
		c-1.079-0.332-2.316-0.123-3.186,0.502c-1.187,0.768-1.621,2.128-1.447,3.539c0.174,1.633,1.812,2.836,3.222,3.359
		c4.075,1.391,8.237-0.812,11.128-2.667c1.66,0.946,3.035,1.613,4.737,2.04c6.33,1.588,12.643-0.608,16.804-5.678
		c4.495-5.174,5.505-13.373,2.752-19.592c-0.469-1.184-1.039-2.376-1.618-3.484c1.252-0.452,2.436-1.062,3.638-1.653
		c2.353-1.028,4.25-2.909,6.426-4.388c1.288-0.559,3.099-0.873,4.387-0.105c-2.995,3.012-5.293,6.444-6.895,10.135
		c-1.394,3.587-2.613,8.028-0.662,11.755c0.767,1.325,2.281,2.04,3.726,1.882c5.262-0.557,9.074-5.781,11.6-10.032
		c2.125-4.073,4.215-8.237,4.265-13.078c2.596-2.002,5.45-3.604,8.868-3.447c-3.747,2.977-6.479,7.016-8.432,11.076
		c-1.357,3.117-2.423,7.749,0.313,10.587c1.08,1.202,2.87,1.367,4.353,0.906c5.331-1.805,9.012-8.088,10.226-13.53
		c0.537-2.944,0.468-6.392-1.726-8.727c0.635-0.5,1.045-0.734,1.436-0.983c2.566-1.625,6.596-1.785,9.135-0.165l-5.623,12.538
		c-0.561,1.446-1.257,3.259-0.331,4.756c0.519,0.974,1.567,1.392,2.523,1.634c4.391,0.386,7.368-3.309,10.29-6.267
		c1.308,1.984,3.503,2.89,5.838,2.943v0.069c-0.358,0.746-0.903,1.27-1.553,1.742c-1.474,1.076-2.988,1.496-4.597,1.984
		l-26.715,6.39l-17.396,4.196c-2.49,0.715-5.207,2.475-6.27,5.053c-0.766,1.862-0.921,4.596,0.506,6.183
		c0.366-0.592,1.008-1.063,1.602-1.394l47.262-14.698c1.9-0.609,3.815-1.15,5.52-2.229c3.015-1.743,3.843-5.051,5.151-7.837
		c0,0,0.095-0.063,0.21-0.119c0.709-0.349,1.94-1.225,1.94-1.225C125.04,47.847,126.316,45.22,126.414,42.539"/>
	<path fill="#004990" d="M122.742,43.408c0.972-3.258,0-6.722-0.63-9.804l-3.532,4.912c2.297,1.688,3.401,4.114,3.486,6.794
		C122.361,44.683,122.518,44.155,122.742,43.408"/>
	<path fill="#004990" d="M119.991,46.108c0.361-2.316-0.576-4.616-2.616-5.868c-1.652,2.281-3.444,4.494-5.064,6.774
		c0.694,0.992,1.705,1.688,2.785,1.969c1.444,0.347,3.102,0.051,4.196-0.941C119.625,47.431,119.798,46.771,119.991,46.108"/>
	<path fill="#004990" d="M115.365,39.795c-0.975-0.191-2.136,0.009-2.862,0.757c-1.082,1.081-1.536,2.856-0.942,4.146
		C112.814,43.079,114.096,41.378,115.365,39.795"/>
	<path fill="#004990" d="M76.784,40.308c0-0.782,0.242-1.862-0.557-2.316c-0.767-0.435-1.377,0.296-1.95,0.751
		c-4.304,4.318-7.628,9.266-9.964,14.505c-0.692,1.555-1.901,4.05-1.061,5.956c0.227,0.4,0.609,0.625,1.027,0.696
		c1.293,0.188,2.648-1.306,3.673-2.353c2.999-3.519,5.242-7.382,6.988-11.44C75.667,44.227,76.416,42.347,76.784,40.308"/>
	<path fill="#004990" d="M61.091,32.246c0.088-1.95,0-3.955-1.131-5.381l-1.324,1.183c-3.78,4.148-6.321,8.796-8.933,13.412
		c0.918,0.575,1.677,1.092,2.315,1.881l2.579-1.429C58.081,39.752,60.587,36.164,61.091,32.246"/>
	<path fill="#004990" d="M51.933,56.609c0.646-3.259,0.714-7.508-0.906-10.344c-1.168,0.295-2.597,0.443-3.676,0.469
		c-2.367,5.224-4.683,10.467-7.714,15.413c-1.603,2.786-4.597,6.391-5.85,7.819c3.761,1.131,7.853,0.277,10.9-1.83
		C48.606,65.298,51.027,61.066,51.933,56.609"/>
	<polyline fill="#004990" points="48.256,44.194 49.772,44.002 48.711,43.375 	"/>
	<path fill="#004990" d="M43.626,41.441c0,0-0.242-0.177-0.908-0.295c-0.663-0.121-1.253-0.019-1.671,0.505
		c-0.243,0.396-0.189,0.725-0.051,1.045c0.243,0.626,0.939,0.816,1.444,0.94"/>
	<path fill="#004990" d="M32.9,64.256c-1.291-1.028-1.952-2.545-1.901-4.164c-1.052,0.896-1.653,2.091-1.88,3.377
		c-0.332,1.708,0.278,3.232,1.328,4.513l0.192-0.193C31.486,66.614,32.271,65.49,32.9,64.256"/>
	<path fill="#004990" d="M91.988,44.975c0.744-3.015,0.675-5.638-0.49-6.704c-0.249-0.227-2.666,2.753-2.666,2.753
		c-2.786,3.743-5.291,7.609-6.249,12.099c-0.104,1.135-0.386,2.441,0.26,3.417c0.471,0.487,1.375,0.398,1.934,0.157
		c1.43-0.589,2.854-2.509,3.832-4.041C89.965,50.201,91.314,47.702,91.988,44.975"/>
</g>
</svg>
