<?xml version="1.0" encoding="utf-8"?>
<!-- Generator: Adobe Illustrator 16.0.4, SVG Export Plug-In . SVG Version: 6.00 Build 0)  -->
<!DOCTYPE svg PUBLIC "-//W3C//DTD SVG 1.1//EN" "http://www.w3.org/Graphics/SVG/1.1/DTD/svg11.dtd">
<svg version="1.1" id="Layer_1" xmlns="http://www.w3.org/2000/svg" xmlns:xlink="http://www.w3.org/1999/xlink" x="0px" y="0px"
	 width="150px" height="34.967px" viewBox="0 0 150 34.967" enable-background="new 0 0 150 34.967" xml:space="preserve">
<g>
	<path fill="#012938" d="M2.523,30.857c0.148-0.184,0.882-0.551,1.066-0.551c0.147,0,0.661,0.109,1.139,0.402
		c0.882,0.625,1.763,1.066,2.313,1.066c0.441,0,0.735-0.109,0.992-0.441c0.515-0.625,0.661-1.652,0.735-2.387
		c0.147-2.094,0.11-6.868,0.11-12.157c0-5.253-0.11-8.926-0.184-10.469C8.657,5.625,8.29,4.853,6.637,4.45
		C5.829,4.266,5.461,3.935,5.461,3.641c0-0.257,0.294-0.514,1.139-0.514c1.139,0,2.608,0.147,4.188,0.147
		c2.02,0,3.343-0.11,4.48-0.11c0.551,0,1.028,0.147,1.028,0.44c0,0.294-0.22,0.588-1.101,0.809c-1.25,0.293-1.727,0.771-1.763,2.571
		c-0.037,3.012-0.184,12.671-0.257,15.792c-0.147,4.408-2.24,7.97-4.627,9.697c-1.8,1.287-3.526,1.873-4.518,1.873
		c-1.139,0-2.645-0.623-2.645-1.652C1.385,32.289,2.12,31.262,2.523,30.857z"/>
	<path fill="#012938" d="M27.682,13.558c0.442,0.588,0.809,1.506,0.809,3.158c0,1.433-0.147,5.804-0.147,6.208
		c0,1.027,0.734,1.469,1.359,1.469c0.184,0,0.918-0.294,1.286-0.441c0.11-0.073,0.147-0.037,0.22,0.037
		c0.074,0.147,0.11,0.404,0.11,0.514c0,0.698-1.726,2.498-3.783,2.498c-1.066,0-2.205-0.33-2.754-1.762
		c-0.038-0.147-0.258-0.221-0.332-0.147c-0.918,0.661-2.423,1.322-2.901,1.542c-0.404,0.148-1.139,0.295-1.616,0.295
		c-1.359,0-2.829-1.653-2.829-3.71c0-0.661,0.294-1.358,0.662-1.872c0.368-0.516,0.992-0.735,1.322-0.882
		c0.809-0.332,4.15-1.249,4.995-1.506c0.44-0.146,0.661-0.404,0.661-0.551c0.038-0.331,0.11-2.351,0.074-2.828
		c-0.036-0.882-0.808-2.351-2.461-2.351c-0.514,0-0.918,0.073-1.175,0.256c-0.147,0.074-0.22,0.441-0.22,1.69
		c0,0.146-0.074,0.256-0.147,0.33c-0.257,0.258-3.012,1.47-3.232,1.47c-0.221,0-0.478-0.294-0.478-0.515
		c0-1.065,0.809-2.057,3.086-3.525c1.359-0.882,3.159-1.359,3.672-1.359C26.103,11.575,27.131,12.75,27.682,13.558z M24.23,24.283
		c0.184-0.11,0.331-0.551,0.331-0.697c0.074-0.516,0.146-2.058,0.146-3.27c0-0.146-0.146-0.367-0.257-0.367
		c-0.624,0-2.313,0.552-2.975,0.955c-0.441,0.331-0.661,0.514-0.661,1.469c0,1.616,1.322,2.352,2.02,2.352
		C23.165,24.724,23.899,24.502,24.23,24.283z"/>
	<path fill="#012938" d="M44.833,12.567c0.478,0.33,0.625,0.845,0.625,1.322c0,0.66-1.212,1.726-1.433,1.726
		c-0.331,0-0.918-0.257-1.689-0.918c-0.992-0.808-1.763-1.579-2.901-1.579c-0.404,0-1.029,0.22-1.58,0.808
		c-0.918,0.955-1.433,2.791-1.433,4.481c0,2.423,0.992,3.636,1.176,3.855c0.698,0.955,2.02,1.983,4.004,1.983
		c1.065,0,2.277-0.44,3.526-1.212c0.184-0.109,0.478,0,0.478,0.294c0,0.367-0.294,0.845-0.588,1.139
		c-1.25,1.322-3.379,2.461-5.657,2.461c-2.681,0-4.738-1.396-5.766-2.939c-0.734-1.139-1.212-2.754-1.212-4.261
		c0-2.865,1.469-4.958,3.673-6.391c1.286-0.881,3.709-1.578,5.179-1.578C42.336,11.759,44.172,12.052,44.833,12.567z"/>
	<path fill="#012938" d="M58.349,12.088c2.204,0,4.334-0.403,5.326-0.403c0.184,0,0.331,0.11,0.331,0.294
		c0,0.44-0.624,0.845-0.772,0.881c-2.129,0.478-2.975,0.882-4.553,2.057c-0.698,0.478-2.021,1.727-2.205,2.094
		c-0.037,0.074-0.037,0.258-0.037,0.258c0.515,0.808,4.261,5.766,5.546,7.052c0.698,0.624,1.248,0.991,2.24,1.249
		c0.587,0.183,0.919,0.439,0.919,0.587c0,0.439-0.442,0.588-1.139,0.588c-0.881,0-3.306-0.221-5.216-0.184l-1.763,0.035
		c-0.404,0-0.955-0.109-0.955-0.514c0-0.219,0.183-0.368,0.808-0.55c0.551-0.184,0.734-0.478,0.477-0.845
		c-0.955-1.359-1.836-2.425-3.562-4.738c-0.367-0.478-0.551-0.734-0.697-0.734c-0.147,0-0.147,0.185-0.184,0.33
		c-0.147,0.404-0.11,3.857,0.037,4.628c0.11,0.698,0.257,1.103,1.286,1.359c0.404,0.11,0.771,0.367,0.771,0.55
		c0,0.479-0.587,0.551-0.991,0.551c-0.918,0-2.571-0.109-3.489-0.109c-1.286,0-2.865,0.146-3.342,0.146
		c-0.771,0-1.029-0.184-1.029-0.477c0-0.331,0.588-0.515,1.066-0.662c1.102-0.331,1.432-0.661,1.542-1.653
		c0.036-0.697,0.257-6.464,0.257-11.275c0-4.738-0.111-7.089-0.221-8.117c-0.036-0.258-0.22-0.515-1.101-1.028
		C47.331,3.274,47.11,2.87,47.11,2.687c0-0.11,0.256-0.293,0.588-0.368c1.175-0.256,3.416-0.881,4.333-1.395
		c0.368-0.185,0.587-0.331,0.771-0.331c0.11,0,0.367,0.331,0.331,0.477c-0.184,1.065-0.331,10.063-0.331,13.664
		c0,0.881-0.037,3.011,0.11,3.489c0.037,0.184,0.11,0.22,0.294,0.22c0.147,0,0.331-0.184,0.587-0.404
		c1.103-0.918,3.379-3.269,4.041-4.077c0.147-0.184,0.257-0.624-0.992-0.844c-0.514-0.11-0.771-0.331-0.771-0.515
		c0-0.221,0.367-0.515,0.734-0.515H58.349z"/>
	<path fill="#012938" d="M72.635,3.127c1.8,0,2.791,0.147,4.48,0.147c1.47,0,2.976-0.11,3.306-0.11c0.624,0,1.028,0.22,1.028,0.477
		c0,0.294-0.22,0.551-1.028,0.845c-0.808,0.257-1.028,0.734-0.808,1.322c0.734,1.837,3.856,8.705,6.721,14.949
		c0.074,0.109,0.184,0.22,0.331-0.038c0.257-0.478,1.653-2.975,2.534-5.104c0.073-0.11,0.073-0.33,0-0.515
		c-1.396-3.379-2.497-5.692-3.636-7.859c-0.918-1.874-1.176-2.497-2.534-2.865c-0.626-0.183-0.882-0.44-0.882-0.734
		c0-0.33,0.588-0.514,1.176-0.514c0.514,0,2.276,0.147,3.525,0.147c1.726,0,3.416-0.11,3.82-0.11c0.478,0,0.917,0.183,0.917,0.514
		c0,0.294-0.403,0.588-0.917,0.735c-0.919,0.22-1.14,0.625-0.771,1.653c0.404,1.065,0.733,1.836,2.094,4.774
		c0.072,0.184,0.183,0.146,0.294-0.037C93.166,9.078,93.424,8.6,94.12,7.02C95.002,5,94.378,4.707,93.35,4.375
		c-0.44-0.183-0.882-0.44-0.882-0.698c0-0.256,0.22-0.477,1.102-0.477c0.735,0,1.323,0.074,2.535,0.074
		c1.175,0,2.351-0.074,2.938-0.074c0.587,0,0.881,0.183,0.881,0.404c0,0.367-0.33,0.588-1.065,0.771
		c-1.285,0.441-1.946,0.698-3.048,2.534c-0.367,0.625-1.396,2.351-2.901,5.216c-0.073,0.184-0.073,0.404,0.036,0.588
		c1.212,2.681,2.792,6.098,3.746,7.86c0.11,0.184,0.258,0.073,0.367-0.11c1.763-3.747,3.71-8.117,5.84-13.369
		c0.661-1.727,0.258-2.351-1.248-2.792c-0.515-0.147-0.955-0.404-0.955-0.662c0-0.44,0.551-0.514,1.102-0.514
		c0.845,0,1.8,0.147,2.534,0.147c1.176,0,2.131-0.11,3.306-0.11c0.661,0,1.103,0.147,1.103,0.404c0,0.33-0.404,0.587-1.066,0.771
		c-1.396,0.294-1.872,0.734-2.9,2.681c-0.478,0.882-2.425,4.959-4.922,10.431c-2.498,5.693-2.682,5.951-3.71,8.631
		C95.958,26.596,95.406,27,95.076,27c-0.221,0-0.515-0.184-0.662-0.697c-1.064-2.717-2.791-6.096-4.187-9.146
		c-0.073-0.109-0.184-0.183-0.257-0.036c-1.91,3.562-3.416,6.831-4.407,9.292c-0.185,0.404-0.845,0.846-1.176,0.846
		c-0.257-0.146-0.33-0.109-0.587-0.697c-0.258-0.662-0.81-2.424-2.314-5.803c-1.433-3.307-4.774-10.909-6.097-13.48
		c-0.919-1.799-1.213-2.533-2.828-2.938c-0.404-0.074-0.992-0.331-0.992-0.698C71.57,3.347,72.011,3.127,72.635,3.127z"/>
	<path fill="#012938" d="M110.72,12.824c1.506-0.294,3.819-1.175,4.407-1.322c0.185,0,0.368,0.294,0.368,0.403
		c-0.074,1.249-0.184,6.171-0.184,8.302c0,1.139,0.036,2.424,0.073,3.708c0.036,1.103,0.478,1.25,1.433,1.544
		c0.551,0.184,0.808,0.404,0.808,0.698c0,0.293-0.515,0.477-1.029,0.477c-0.257,0-2.24-0.109-3.047-0.109
		c-1.176,0-2.938,0.146-3.563,0.146c-0.588,0-1.028-0.221-1.028-0.477c0-0.257,0.257-0.442,0.955-0.662
		c0.882-0.257,1.285-0.698,1.358-1.065c0.147-0.515,0.221-3.121,0.221-5.729c0-0.771,0-2.864-0.073-3.307
		c-0.036-0.293-0.478-0.66-1.249-1.321c-0.22-0.22-0.44-0.403-0.44-0.587C109.729,13.228,110.132,12.934,110.72,12.824z
		 M115.568,6.176c0,1.212-1.286,2.239-2.204,2.239c-0.33,0-1.064-0.22-1.469-0.624c-0.367-0.367-0.698-0.882-0.698-1.615
		c0-0.441,0.185-1.176,0.588-1.617c0.44-0.403,1.138-0.661,1.836-0.661C114.907,3.898,115.568,5.331,115.568,6.176z"/>
	<path fill="#012938" d="M120.049,2.172c1.579-0.441,3.342-0.735,4.774-1.653c0.109-0.074,0.44,0.22,0.44,0.368
		c-0.109,1.321-0.294,8.704-0.294,14.213c0,2.865,0.037,7.714,0.147,8.814c0.109,0.846,0.257,1.286,1.652,1.69
		c0.514,0.184,0.771,0.367,0.771,0.625c0,0.33-0.588,0.439-0.991,0.439c-0.882,0-2.976-0.146-3.637-0.146
		c-0.846,0-2.645,0.146-3.416,0.146c-0.807,0-1.064-0.258-1.064-0.439c0-0.406,0.477-0.552,0.881-0.625
		c1.212-0.33,1.433-0.881,1.543-2.791c0.11-1.616,0.221-5.767,0.221-11.57c0-1.909-0.037-5.361-0.037-6.427
		c0-0.441-0.221-0.661-0.991-1.248c-0.478-0.404-0.662-0.588-0.662-0.772C119.387,2.613,119.645,2.319,120.049,2.172z"/>
	<path fill="#012938" d="M130.001,2.172c1.578-0.441,3.342-0.735,4.774-1.653c0.109-0.074,0.44,0.22,0.44,0.368
		c-0.11,1.321-0.294,8.704-0.294,14.213c0,2.865,0.037,7.714,0.146,8.814c0.11,0.846,0.258,1.286,1.653,1.69
		c0.515,0.184,0.771,0.367,0.771,0.625c0,0.33-0.588,0.439-0.991,0.439c-0.882,0-2.976-0.146-3.637-0.146
		c-0.845,0-2.645,0.146-3.416,0.146c-0.809,0-1.065-0.258-1.065-0.439c0-0.406,0.479-0.552,0.882-0.625
		c1.213-0.33,1.433-0.881,1.543-2.791c0.11-1.616,0.221-5.767,0.221-11.57c0-1.909-0.037-5.361-0.037-6.427
		c0-0.441-0.221-0.661-0.991-1.248c-0.479-0.404-0.661-0.588-0.661-0.772C129.34,2.613,129.597,2.319,130.001,2.172z"/>
	<path fill="#012938" d="M147.115,11.795c0.478,0.073,1.249,0.367,1.322,0.403c0.146,0.11,0.294,0.331,0.33,0.625
		c0.074,0.514,0.147,2.093,0.147,2.351c0,0.33-0.294,0.771-0.551,0.771c-0.258,0-0.588-0.478-0.809-0.882
		c-0.808-1.542-1.727-2.388-3.048-2.388c-0.919,0-1.837,0.919-1.837,1.873c0,1.323,1.396,2.131,3.232,3.159
		c3.158,1.69,3.6,2.975,3.6,4.628c0,1.726-1.103,2.938-2.313,3.708c-0.772,0.516-2.646,0.918-3.711,0.918
		c-1.138,0-3.012-0.256-3.709-0.844c-0.147-0.183-0.698-1.726-0.698-3.011c0-0.552,0.221-0.846,0.368-0.846
		c0.367,0,0.624,0.404,0.881,0.846c1.212,2.057,2.645,2.755,3.562,2.755c0.441,0,1.102-0.221,1.47-0.479
		c0.514-0.403,0.733-1.064,0.733-1.652c0-0.624-0.293-1.285-1.469-2.021c-0.991-0.624-1.433-0.918-2.534-1.58
		c-1.358-0.844-2.57-2.239-2.57-4.113c0-1.358,0.771-2.827,2.313-3.672c0.809-0.441,1.837-0.771,3.195-0.771
		C145.866,11.575,146.638,11.685,147.115,11.795z"/>
</g>
</svg>
